<?xml version="1.0" standalone="no"?>
<!DOCTYPE svg PUBLIC "-//W3C//DTD SVG 1.1//EN" "http://www.w3.org/Graphics/SVG/1.1/DTD/svg11.dtd" >
<!--
2013-9-30: Created.
-->
<svg>
<metadata>
Created by iconfont
</metadata>
<defs>

<font id="iconfont" horiz-adv-x="1024" >
  <font-face
    font-family="iconfont"
    font-weight="500"
    font-stretch="normal"
    units-per-em="1024"
    ascent="896"
    descent="-128"
  />
    <missing-glyph />
    
    <glyph glyph-name="loan" unicode="&#58907;" d="M808.051227 787.763693h-334.354813a98.193018 98.193018 0 0 1-98.084637-98.084637v-129.460883l-1.083809 1.011554-252.617615-269.326324-2.546949-338.40103h50.866729l2.384378 318.115754 202.997266 216.364233v-209.283353l-83.453228-83.453227 35.982431-35.946304 176.407839 176.46203c12.210905 12.192842 28.775106 19.201468 45.393498 19.201467 14.6856 0 28.142885-5.382914 37.933285-15.15525 10.241987-10.26005 15.642964-24.457937 15.10106-39.920267a64.125315 64.125315 0 0 0-19.201468-43.334262L280.778564-46.497626999999966h71.91067l69.074706 69.056642a97.687241 97.687241 0 0 1 51.932474-15.010743h334.354813a98.229145 98.229145 0 0 1 98.120764 98.102701V689.679056a98.229145 98.229145 0 0 1-98.120764 98.084637z m-83.615799-729.348692h-250.720951c-4.84101 0-9.411067 0.957364-13.80049 2.312124l159.825574 159.879765a115.118489 115.118489 0 0 1 34.085767 77.52841c1.047681 29.73247-9.627829 57.279261-29.985359 77.654853-19.382102 19.382102-45.592196 30.057613-73.879589 30.057613-29.985359 0-59.663638-12.427667-81.339801-34.121893l-42.12401-42.142074V689.679056a47.290162 47.290162 0 0 0 47.217908 47.235972h250.739015l-0.018064-678.500027z m130.851771 47.235972a47.290162 47.290162 0 0 0-47.217909-47.235972h-32.749069V736.896964h32.749069a47.272099 47.272099 0 0 0 47.217909-47.235972v-584.010019z"  horiz-adv-x="1024" />

    
    <glyph glyph-name="strategy-monitor" unicode="&#58908;" d="M515.838487 810.198522c-236.794016 0-428.736439-191.942423-428.736439-428.736439 0-236.75789 191.942423-428.736439 428.736439-428.73644 236.775953 0 428.736439 191.97855 428.736439 428.73644 0 236.794016-191.960486 428.736439-428.736439 428.736439z m241.165376-715.927535v-7.586657h-9.609765c-63.800173-50.198381-144.092293-80.382438-231.555611-80.382437s-167.773501 30.184057-231.55561 80.382437h-9.591702v7.586657c-81.863642 68.839881-133.97675 171.891972-133.976751 287.173032 0 207.206054 167.954136 375.16019 375.16019 375.16019 207.187991 0 375.178253-167.954136 375.178253-375.16019-0.072254-115.28106-52.203426-218.333151-134.049004-287.173032zM515.838487 676.221771c-162.806047 0-294.759689-131.953642-294.759689-294.741625h53.612377c0 133.218085 107.965355 241.183439 241.165376 241.18344 133.181958 0 241.201503-107.965355 241.201503-241.18344h53.594312c-0.05419 162.787984-132.043959 294.741625-294.813879 294.741625z m87.535571-134.536717c-13.926935 3.973963-28.269329-4.786819-31.990403-19.526611L508.396338 273.53285500000004c-40.82344-3.811392-72.940288-37.806841-72.940288-79.641836 0-44.400007 35.964367-80.382438 80.382437-80.382437s80.382438 35.98243 80.382438 80.382437a80.201803 80.201803 0 0 1-36.777223 67.394804l62.445412 246.512162c3.721075 14.775918-4.533931 29.949232-18.515056 33.887069zM542.626612 167.06676800000002h-53.612376v53.612376h53.612376v-53.612376z"  horiz-adv-x="1024" />

    
    <glyph glyph-name="loan-monitor" unicode="&#58909;" d="M514.158585 167.12095799999997c-174.041525 0-315.622996 141.581471-315.622996 315.622996 0 174.023461 141.581471 315.622996 315.622996 315.622995 174.041525 0 315.622996-141.599534 315.622995-315.622995 0-174.041525-141.581471-315.622996-315.622995-315.622996z m0 578.645169c-145.031593 0-263.022174-117.99058-263.022174-263.022173s117.99058-263.022174 263.022174-263.022174 263.022174 117.99058 263.022173 263.022174S659.190178 745.766127 514.158585 745.766127zM514.158585 324.94148800000005c-87.047858 0-157.802466 70.754608-157.802467 157.802466s70.754608 157.82053 157.802467 157.820529c87.029794 0 157.82053-70.772672 157.820529-157.820529s-70.790735-157.802466-157.820529-157.802466z m0 263.022173c-58.019863 0-105.201644-47.199845-105.201645-105.219707s47.181781-105.201644 105.201645-105.201644 105.219708 47.181781 105.219707 105.201644-47.181781 105.219708-105.219707 105.219707zM514.158585 482.743954h-52.600822a52.673076 52.673076 0 0 0 52.600822 52.600822v-52.600822zM816.017217-43.300392999999985H212.299952l67.015471 167.574802 48.879747-19.52661-38.186174-95.44737h448.353367l-38.204237 95.44737 48.897811 19.52661L816.017217-43.300392999999985z"  horiz-adv-x="1024" />

    
    <glyph glyph-name="industry-monitoring" unicode="&#58910;" d="M191.960486 410.652649c0 14.721727 11.958017 26.697807 26.679744 26.697807 14.721727 0 26.697807-11.958017 26.697807-26.697807a26.697807 26.697807 0 0 0-53.377551 0z m93.352008 186.704016c0 14.721727 11.958017 26.697807 26.679744 26.697808 14.721727 0 26.697807-11.958017 26.697808-26.697808a26.697807 26.697807 0 0 0-53.377552 0z m200.034857 80.003105a26.697807 26.697807 0 1 0 53.395615-0.036127 26.697807 26.697807 0 0 0-53.395615 0.036127z m245.374165-87.607825a27.149394 27.149394 0 0 0 0-38.366809l-172.614511-172.56032a27.113267 27.113267 0 1 0-38.384872 38.312618l172.632574 172.614511a27.185521 27.185521 0 0 0 38.366809 0z m74.692444-152.437616a26.715871 26.715871 0 1 0-26.697807-26.697807 26.733934 26.733934 0 0 0 26.697807 26.697807zM432.005927 170.607208h160.006209a26.697807 26.697807 0 0 0 0-53.359488h-160.006209a26.697807 26.697807 0 0 0 0 53.359488z m80.021168-213.383761a425.286317 425.286317 0 0 0-301.262538 124.529556 26.499109 26.499109 0 0 0-8.796909 19.707245 26.733934 26.733934 0 0 0 26.697807 26.679744c7.55053 0 14.396585-3.215298 19.219532-8.273069l0.090317 0.090317a372.179717 372.179717 0 0 1 264.051791-109.356242c206.212563 0 373.408033 167.19547 373.408034 373.408034 0 206.230627-167.19547 373.408033-373.408034 373.408033-206.230627 0-373.408033-167.177407-373.408033-373.408033 0-24.656635 2.835965-48.608795 7.60472-71.874544a53.233043 53.233043 0 0 1 49.927429-34.808305h212.552841c6.719611 0 12.626365 3.305615 16.239059 8.363386a1.318633 1.318633 0 0 0 0.632221 0.379333 106.321579 106.321579 0 0 0 86.469827 44.634832c35.729542 0 67.123851-17.684136 86.469826-44.634832 0.252889-0.090317 0.46965-0.180635 0.614158-0.379333 3.648821-5.057771 9.519448-8.363386 16.239059-8.363386h136.686271a26.715871 26.715871 0 0 0 0-53.377551H611.629064a66.473566 66.473566 0 0 0-54.822629 28.829297 53.26917 53.26917 0 0 1-44.77934 24.512127 53.233043 53.233043 0 0 1-44.761276-24.512127 66.563884 66.563884 0 0 0-54.858756-28.829297H196.133148c-49.981619 0-91.563725 34.447036-103.178536 80.852088a422.251654 422.251654 0 0 0-7.676974 79.208312c0 235.692145 191.057313 426.749458 426.749457 426.749457s426.749458-191.057313 426.749458-426.749457-191.057313-426.785585-426.749458-426.785585z"  horiz-adv-x="1024" />

    
    <glyph glyph-name="jueceshuguanli" unicode="&#58911;" d="M787.946586 509.568205c80.039232 0 145.121911 65.100743 145.121911 145.139975 0 80.021168-65.100743 145.121911-145.121911 145.12191-80.057295 0-145.139974-65.100743-145.139974-145.12191 0-7.117007 0.668348-13.999189 1.679902-20.82718l-305.18231-117.358359a144.561943 144.561943 0 0 1-105.54485 45.827021c-80.039232 0-145.139974-65.118806-145.139975-145.139974s65.100743-145.139974 145.139975-145.139974a144.453562 144.453562 0 0 1 83.742242 26.788124l206.718341-137.806205a144.507753 144.507753 0 0 1-13.385031-60.548749c0-80.039232 65.100743-145.139974 145.139974-145.139974 80.057295 0 145.139974 65.100743 145.139975 145.139974 0 80.021168-65.100743 145.139974-145.139975 145.139974a144.327118 144.327118 0 0 1-101.317998-41.491788l-199.800031 133.200021a144.254864 144.254864 0 0 1 13.529538 133.741925l293.025596 112.679921a145.266419 145.266419 0 0 1 126.534601-74.204732z m0 237.498492a92.466898 92.466898 0 0 0 92.340454-92.340454 92.466898 92.466898 0 0 0-92.340454-92.358517 92.484962 92.484962 0 0 0-92.358518 92.358517 92.466898 92.466898 0 0 0 92.358518 92.340454zM233.777417 324.85117c-50.902856 0-92.340454 41.437598-92.340454 92.358518s41.437598 92.358518 92.340454 92.358517c50.920919 0 92.358518-41.437598 92.358518-92.358517s-41.437598-92.358518-92.358518-92.358518z m422.215527-131.953641a92.484962 92.484962 0 0 0 92.358517-92.358518 92.466898 92.466898 0 0 0-92.358517-92.340454 92.484962 92.484962 0 0 0-92.340454 92.340454 92.448835 92.448835 0 0 0 92.340454 92.358518z"  horiz-adv-x="1024" />

    
    <glyph glyph-name="caozuorizhi" unicode="&#58912;" d="M461.774524 603.949832h-157.441197v-52.474378h157.441197v52.474378z m0-104.966819h-157.441197v-52.474378h157.441197v52.474378zM645.443878 787.619185h-419.795022a78.720598 78.720598 0 0 1-78.720598-78.702535v-682.239164a78.684471 78.684471 0 0 1 78.720598-78.702535H802.921202a78.666408 78.666408 0 0 1 78.702535 78.702535V551.45739L645.443878 787.619185z m0-78.720598l157.441197-157.45926h-104.966819a52.492441 52.492441 0 0 0-52.474378 52.474378v104.984882z m183.687417-655.992944a52.492441 52.492441 0 0 0-52.456314-52.474378H251.85895a52.492441 52.492441 0 0 0-52.456315 52.474378V682.652366a52.456314 52.456314 0 0 0 52.456315 52.456315h341.128614v-157.441197a78.702535 78.702535 0 0 1 78.702535-78.702535h157.441196v-446.059306z m-524.779904 288.654236h419.831149V394.016194H304.351391v-52.456315z m0-209.915574h419.831149V184.118683H304.351391v-52.474378z m0 104.948755h419.831149V289.067438H304.351391v-52.474378z"  horiz-adv-x="1024" />

    
    <glyph glyph-name="monitor-center" unicode="&#58913;" d="M612.044524 58.830461000000014H318.585405a22.073559 22.073559 0 1 0 0 44.165182h293.459119a22.091623 22.091623 0 0 0 0-44.165182zM234.716718 258.10665200000005a22.109686 22.109686 0 0 0-18.876326 33.525799l90.714742 149.818412a21.983242 21.983242 0 0 0 18.153787 10.603257c7.478276 0.325142 14.559156-3.305615 18.822134-9.411068l52.817584-75.758189 63.619538 66.365186a22.073559 22.073559 0 0 0 30.310501 1.481204l55.256152-47.416606 112.57154 192.97204a22.055496 22.055496 0 0 0 38.11392-22.254194l-125.90238-215.858456a22.200004 22.200004 0 0 0-33.471608-5.617739l-59.464941 51.047364-67.810263-70.700418a22.019369 22.019369 0 0 0-34.031575 2.65533l-48.825557 69.995943-73.15705-120.808482c-4.082344-6.846055-11.379986-10.639383-18.840198-10.639383zM657.7451 197.28695200000004H165.497504a44.183245 44.183245 0 0 0-44.129055 44.129055v370.481751a44.165182 44.165182 0 0 0 44.129055 44.110991h599.598793a44.165182 44.165182 0 0 0 44.129055-44.110991v-133.200021a171.783591 171.783591 0 0 0 44.129055-10.278114v143.478135a88.529062 88.529062 0 0 1-88.294237 88.276173H165.497504c-48.554605 0-88.294237-39.721569-88.294237-88.276173v-370.481751a88.547126 88.547126 0 0 1 88.294237-88.294237h545.209688a175.324031 175.324031 0 0 0-52.962092 44.165182zM968.472896 164.05016799999999l-65.172997 65.172997a133.796116 133.796116 0 0 1 24.168922 76.75168c0 74.204731-60.386177 134.590908-134.590908 134.590908-74.186668 0-134.572845-60.368114-134.572845-134.590908 0-74.204731 60.386177-134.608972 134.572845-134.608972 29.786661 0 57.261197 9.862654 79.569581 26.300411l64.847854-64.847854a22.001305 22.001305 0 0 1 31.177548 0 22.073559 22.073559 0 0 1 0 31.231738z m-266.056836 141.942741a90.516044 90.516044 0 0 0 90.443789 90.443789 90.552171 90.552171 0 0 0 90.461854-90.443789 90.570234 90.570234 0 0 0-90.461854-90.479917 90.552171 90.552171 0 0 0-90.443789 90.479917z"  horiz-adv-x="1024" />

    
    <glyph glyph-name="kezhihuashuju" unicode="&#58915;" d="M122.705146 529.69091l375.160189-204.297836a25.288857 25.288857 0 0 1 24.078605-0.05419l379.079962 204.297836c8.255005 4.42555 13.385031 13.114079 13.258587 22.525146a25.324984 25.324984 0 0 1-13.836618 22.23613L525.303745 764.913405a25.288857 25.288857 0 0 1-22.796098 0.036127L123.445748 574.452186a25.343047 25.343047 0 0 1-13.926935-22.163876c-0.144508-9.393004 4.949391-18.11766 13.186333-22.5974z m391.110233 184.391893l320.69883-162.878301-324.510222-174.890508-320.734958 174.637619 324.54635 163.13119z m382.331387-325.341142l-74.999524 38.077793-54.136217-29.190567 63.186015-32.062657-324.528286-174.890508-320.734957 174.655683 67.358676 33.850941-53.991709 29.425391-79.208312-39.811886a25.288857 25.288857 0 0 1-0.758666-44.761276l375.142126-204.297836a25.162412 25.162412 0 0 1 24.060541-0.05419L896.670606 343.980384c8.273069 4.42555 13.403094 13.150206 13.258587 22.525146a25.234666 25.234666 0 0 1-13.782427 22.236131z m0-176.895553l-71.061688 34.934749-54.136217-29.190566 59.230116-28.937678-324.510223-174.872444-320.734957 174.655683 62.626047 28.323519-53.973646 29.407328-74.475683-34.266401a25.270793 25.270793 0 0 1-0.758665-44.761276L493.493976-37.158814a25.144349 25.144349 0 0 1 24.060541-0.05419l379.098026 204.297835c8.273069 4.443613 13.403094 13.132142 13.258586 22.525146a25.144349 25.144349 0 0 1-13.764363 22.236131z"  horiz-adv-x="1024" />

    
    <glyph glyph-name="guizezhongxin" unicode="&#58916;" d="M270.08499 266.126832l0.559968-0.541904c0.650285-0.921237 1.047681-1.896664 1.842473-2.727584 1.083808-1.083808 2.420505-1.661839 3.630758-2.438568l75.487237-71.657782a22.109686 22.109686 0 0 1 31.376246 0 22.470956 22.470956 0 0 1 0 31.593008l-60.675193 61.054525 59.988781 60.368114a22.452892 22.452892 0 0 1 0 31.574944 22.109686 22.109686 0 0 1-31.376246 0l-78.431583-78.955423a22.145813 22.145813 0 0 1-3.919772-25.595936c-0.090317-0.668348 0.307079-1.499268 1.517331-2.673394z m208.940147-77.203267l100.577396 149.980984a23.663145 23.663145 0 0 1 0 33.507736 23.663145 23.663145 0 0 1-33.507735 0l-100.577396-149.999048a23.608954 23.608954 0 0 1 0-33.489672c9.212369-9.230433 24.241176-9.230433 33.507735 0z m163.871792-0.180634a22.109686 22.109686 0 0 1 31.376246 0l75.505301 71.657782c1.192189 0.776729 2.546949 1.35476 3.630757 2.438568 0.794793 0.83092 1.137999 1.842474 1.82441 2.727584l0.559968 0.541904c1.210252 1.174125 1.625712 2.005045 1.553458 2.637266a22.145813 22.145813 0 0 1-3.937836 25.595936l-78.431583 78.955424a22.091623 22.091623 0 0 1-31.358182 0 22.398702 22.398702 0 0 1 0-31.574944l59.970717-60.368114-60.693256-61.072589a22.398702 22.398702 0 0 1 0-31.538817zM339.683536 675.824375a24.674699 24.674699 0 1 1-0.018063-49.367461 24.674699 24.674699 0 0 1 0.018063 49.367461zM833.592972 774.613488H191.508899A74.078287 74.078287 0 0 1 117.412549 700.517137V58.396938a74.060223 74.060223 0 0 1 74.09635-74.096351h642.102137a74.060223 74.060223 0 0 1 74.114413 74.096351V700.517137a74.132477 74.132477 0 0 1-74.132477 74.096351z m24.710826-691.505725a49.349398 49.349398 0 0 0-49.385525-49.367461H216.201662a49.385525 49.385525 0 0 0-49.385525 49.367461v444.541975h691.487661v-444.541975z m0 493.9275H166.798074v98.807176a49.385525 49.385525 0 0 0 49.385524 49.367461h592.716612a49.367461 49.367461 0 0 0 49.385524-49.367461l0.018064-98.807176z m-617.409374 98.789112a24.674699 24.674699 0 1 1-0.018064-49.367461 24.674699 24.674699 0 0 1 0.018064 49.367461z m197.560162 0a24.674699 24.674699 0 1 1-0.018064-49.367461 24.674699 24.674699 0 0 1 0.018064 49.367461z"  horiz-adv-x="1024" />

    
    <glyph glyph-name="kehuguizeguanli" unicode="&#58917;" d="M379.495422 339.861913c-70.375276 0-127.654536 57.22507-127.654536 127.600346s57.261197 127.708727 127.654536 127.708727c70.375276 0 127.654536-57.315387 127.654537-127.708727 0-70.375276-57.261197-127.600346-127.654537-127.600346z m0 204.243645a76.715553 76.715553 0 0 1-76.589109-76.643299 76.679426 76.679426 0 0 1 76.589109-76.552982 76.679426 76.679426 0 0 1 76.607173 76.552982 76.715553 76.715553 0 0 1-76.607173 76.643299zM507.529291 131.46367l-22.633526 137.950714-62.337032 20.664608 16.076487 48.482351 91.654042-30.328564 27.619045-168.459913-50.379016-8.309196zM251.515744 131.46367l-50.397079 8.273069 27.655171 168.459913 91.635979 30.328565 16.058424-48.482352-62.318968-20.664608-22.633527-137.914587zM609.280813 544.105558h102.130854v-51.065427H609.280813v51.065427zM609.280813 441.974704h204.279772v-51.065427H609.280813v51.065427zM609.280813 339.861913h204.279772v-51.065427H609.280813v51.065427zM609.280813 237.731059h204.279772v-51.065427H609.280813v51.065427zM379.495422 84.516714h255.309073v-51.047364H379.495422v51.047364zM915.673376 33.46935h-229.767327v51.047364h178.75609V646.236413H149.728095v-561.719699h178.719964v-51.047364H98.644605V697.30184h817.010707v-663.83249h0.018064z"  horiz-adv-x="1024" />

    
    <glyph glyph-name="preference-set" unicode="&#58918;" d="M156.375452 751.492247c-12.933444 0-23.410256-10.494876-23.410256-23.410256v-702.217361c0-12.951507 10.476812-23.410256 23.428319-23.410256 12.933444 0 23.410256 10.458749 23.410256 23.410256V728.081991A23.428319 23.428319 0 0 1 156.375452 751.492247z m515.296583-46.820512c-93.09912 0-138.944204-70.212704-235.132177-70.212704-125.938507 0-209.933638 70.212704-209.933638 70.212704v-397.920161s93.09912-70.212704 210.349098-70.212704c95.049974 0 153.250472 70.212704 235.529573 70.212704 116.888709 0 209.554305-70.212704 209.554305-70.212704V634.459031c-0.036127 0-93.496516 70.212704-210.367161 70.212704z m0.812856-351.099649c-82.279102 0-140.461536-70.230768-235.529573-70.230768-66.292932 0-124.890825 22.434829-163.293761 41.943376 0 64.613029-0.270952 205.36358-0.270952 302.906313 36.885604-19.183404 93.62296-40.552488 163.149253-40.552488 96.133783 0 141.996931 70.230768 235.132177 70.230768 65.877472 0 124.312794-22.308384 162.751857-41.780804 0-152.058283 1.282506-220.392387 1.282506-304.784914-38.240364 19.580801-96.820194 42.268518-163.221507 42.268517z"  horiz-adv-x="1024" />

    
    <glyph glyph-name="moxingliebiao" unicode="&#58919;" d="M507.547355 790.419023L101.877966 587.566265h-0.758666v-406.807388l406.428055-203.214027 406.428055 203.214027v406.428055l-406.428055 203.232091z m0-49.222953l305.615834-153.196282-116.346805-58.706274-307.078975 152.762758 117.809946 59.139798z m-25.415301-700.140063L151.913775 206.174178V535.814426l16.166805 0.018064-16.166805 0.541904v25.397237l330.200215-165.118171V41.056007zM201.931521 587.204996l134.500591 66.040043 311.052938-149.890667-139.937695-67.756073-305.615834 151.606697z m661.23135-76.209776v-304.821042L532.944592 41.056007V396.689587l330.218279 165.118171v-50.812538z"  horiz-adv-x="1024" />

    
    <glyph glyph-name="moxingbushu" unicode="&#58920;" d="M432.276879 785.198681H159.121099a59.735892 59.735892 0 0 1-59.663638-59.663639V10.167475a59.772019 59.772019 0 0 1 59.663638-59.681702h273.15578a59.753956 59.753956 0 0 1 59.663639 59.681702V725.535042a59.735892 59.735892 0 0 1-59.663639 59.663639z m3.973963-775.031206a4.100407 4.100407 0 0 0-3.973963-3.992027H159.121099a4.100407 4.100407 0 0 0-3.973963 3.992027V725.535042c0 2.113426 1.860537 3.973963 3.973963 3.973963h273.15578c2.113426 0 3.973963-1.860537 3.973963-3.973963V10.167475zM365.514297 646.79638h-139.630616a23.879906 23.879906 0 0 1 0-47.705622h139.630616a23.843779 23.843779 0 1 1 0 47.705622zM365.514297 566.016546h-139.630616a23.861843 23.861843 0 0 1 0-47.723685h139.630616a23.879906 23.879906 0 0 1 0 47.723685zM365.514297 485.27284h-139.630616a23.879906 23.879906 0 0 1 0-47.723686h139.630616a23.879906 23.879906 0 0 1 0 47.723686zM870.424386 785.198681H596.817019a59.772019 59.772019 0 0 1-59.699765-59.663639V10.167475a59.790083 59.790083 0 0 1 59.699765-59.681702h273.589303a59.753956 59.753956 0 0 1 59.663639 59.681702V725.535042a59.717829 59.717829 0 0 1-59.645575 59.663639z m3.955899-775.031206a4.100407 4.100407 0 0 0-3.973963-3.992027H596.817019a4.118471 4.118471 0 0 0-4.01009 3.992027V725.535042c0 2.113426 1.878601 3.973963 4.01009 3.973963h273.589303c2.113426 0 3.973963-1.860537 3.973963-3.973963V10.167475zM803.679867 646.79638h-140.154456a23.843779 23.843779 0 0 1 0-47.705622h140.154456a23.843779 23.843779 0 0 1 0 47.705622zM803.679867 566.016546h-140.154456a23.843779 23.843779 0 0 1 0-47.723685h140.154456a23.843779 23.843779 0 0 1 0 47.723685zM803.679867 485.27284h-140.154456a23.843779 23.843779 0 0 1 0-47.723686h140.154456a23.843779 23.843779 0 0 1 0 47.723686z"  horiz-adv-x="1024" />

    
    <glyph glyph-name="sample-lib" unicode="&#58921;" d="M413.545062 203.7898m-30.057613 0a30.057613 30.057613 0 1 1 60.115225 0 30.057613 30.057613 0 1 1-60.115225 0ZM493.006262 149.671647m-30.039549 0a30.039549 30.039549 0 1 1 60.079098 0 30.039549 30.039549 0 1 1-60.079098 0ZM618.077722 47.703363999999965H183.849989c-29.280883 0-51.751839 8.038244-58.615958 20.971688-6.520912 12.247032 2.167616 28.37771 7.9118 36.939794l54.334915 80.797897 0.307079-0.216761 57.766974 89.522552H563.760871l40.841503-63.312459V298.641077l-84.428654 130.833706c-9.591702 14.848172-17.991215 43.388453-17.991215 61.07259v218.567976h30.888532a23.374129 23.374129 0 1 1 0 46.730194H478.681931c-12.283159 0-22.218067-9.483321-23.175431-21.495528h-0.072253v-0.722539c-0.018063-0.379333-0.108381-0.758666-0.108381-1.137998 0-0.397396 0.090317-0.758666 0.108381-1.156062v-240.749917c0-26.336538 11.181287-64.30595 25.451427-86.415636l52.709203-81.683007H275.684665l52.727267 81.683007c14.270141 22.12775 25.451428 60.079098 25.451428 86.415636V735.6867119999999h-0.36127a23.301875 23.301875 0 0 1-23.012859 20.176895h-54.389106a23.356066 23.356066 0 0 1 0-46.730195h31.051104v-218.567976c0-17.684136-8.399513-46.224417-17.991216-61.072589L157.838593 226.025931l-0.036127 0.018063-63.438903-94.345499c-20.032387-29.768597-23.717335-59.970717-10.386495-85.024749 15.480393-29.046058 51.878283-45.700577 99.872921-45.700577l464.249219 1.499268a159.681067 159.681067 0 0 0-30.021486 45.230927zM928.498439 645.369366h-54.389106c-12.752809 0-23.06705-10.20586-23.319938-22.904479h-0.451587c0.379333-2.962409 0.921237-5.888691 0.921237-8.941417v-122.687082h-156.790912v122.687082c0 3.052726 0.541904 5.997072 0.939301 8.941417h-0.523841a23.374129 23.374129 0 0 1-23.338002 22.904479h-54.371042a23.356066 23.356066 0 1 1 0-46.730194h30.56339v-481.391452a117.015153 117.015153 0 0 1 116.888708-116.888709h16.510011a117.015153 117.015153 0 0 1 116.870645 116.888709V598.621108h30.491136a23.374129 23.374129 0 0 1 0 46.748258z m-147.379845-598.28016h-16.51001a70.194641 70.194641 0 0 0-70.158514 70.122387V444.070067h156.790911v-326.876537a70.194641 70.194641 0 0 0-70.122387-70.104324zM793.474007 357.67249400000003m-30.039549 0a30.039549 30.039549 0 1 1 60.079098 0 30.039549 30.039549 0 1 1-60.079098 0ZM753.391169 270.191113m-30.039549 0a30.039549 30.039549 0 1 1 60.079098 0 30.039549 30.039549 0 1 1-60.079098 0Z"  horiz-adv-x="1024" />

    
    <glyph glyph-name="download-task" unicode="&#58922;" d="M648.297906 389.247438l-111.758683-111.758684V564.535342a27.095204 27.095204 0 1 1-54.208471 0v-287.028524l-111.758683 111.758683a27.07714 27.07714 0 0 1-38.330682 0 27.095204 27.095204 0 0 1 0-38.348745l153.358853-153.358852c6.502849-6.484785 15.408139-8.544021 23.825716-7.062817 8.417577-1.481204 17.304803 0.541904 23.825715 7.062817l153.322726 153.358852a27.095204 27.095204 0 1 1-38.276491 38.330682zM509.444019 808.590873c-239.648045 0-433.866464-194.236483-433.866464-433.830337 0-239.648045 194.21842-433.884528 433.866464-433.884528 239.629981 0 433.830337 194.236483 433.830338 433.884528 0 239.575791-194.200356 433.830337-433.830338 433.830337z m0-813.470268c-209.680749 0-379.63993 169.959181-379.63993 379.657994 0 209.608495 169.941117 379.603803 379.63993 379.603803 209.626559 0 379.603803-169.977244 379.603803-379.603803 0-209.698813-169.959181-379.657994-379.603803-379.657994z"  horiz-adv-x="1024" />

    
    <glyph glyph-name="use-statistics" unicode="&#58923;" d="M468.72896 332.92554099999995v380.416659c-207.061546-3.648821-373.769303-172.50613-373.769303-380.416659 0-207.892466 166.707756-376.713648 373.769303-380.380532 2.257934-0.05419 4.515867-0.216762 6.791864-0.216762 210.186526 0 380.543104 170.428831 380.543104 380.561167l-387.334968 0.036127z m-49.132636 326.533331v-98.120764H236.667572c48.139145 50.306761 111.650303 85.837605 182.928752 98.120764z m-221.819401-147.2534h221.801337v-81.086913h-260.113955a330.109898 330.109898 0 0 0 38.312618 81.086913z m-53.666566-179.279931c0 16.672582 1.553458 32.965831 3.973963 49.024255h271.49394v-58.074053l-28.359646-23.030923H145.699942a330.579548 330.579548 0 0 0-1.589585 32.080721z m57.730847-185.800843a331.049198 331.049198 0 0 0-47.506924 104.551359h176.335585l-128.828661-104.551359z m273.67962-145.591561c-0.812856 0-1.589585 0.036127-2.384378 0.05419l-3.54044 0.108381c-93.388135 1.643776-177.672282 42.720104-237.083032 107.007991l215.659758 175.071143H803.282471c-23.807652-159.536559-161.704175-282.241705-327.761647-282.241705zM566.398137 797.554093c-2.294061 0-4.515867-0.126444-6.773801-0.162571v-380.380532h387.353032C946.995431 627.161389 776.602727 797.554093 566.398137 797.554093z m42.358835-51.860219c146.657306-18.786008 263.690522-133.814179 285.420876-279.568312H608.756972V745.693874z"  horiz-adv-x="1024" />

    
    <glyph glyph-name="peizhizhongxin" unicode="&#58924;" d="M767.950325 188.381661h-276.732346c-11.072907 42.756231-49.602286 74.51181-95.826704 74.51181s-84.735734-31.755579-95.826703-74.51181h-28.359647a24.819207 24.819207 0 1 1 0-49.67454h28.359647c11.072907-42.792358 49.602286-74.51181 95.826703-74.51181s84.735734 31.719452 95.826704 74.51181h276.732346a24.819207 24.819207 0 1 1 0 49.67454zM395.391275 103.91688a59.609448 59.609448 0 1 0 0 119.200832 59.609448 59.609448 0 0 0 0-119.200832z m372.55905 283.162941H714.771472c-11.072907 42.792358-49.584223 74.51181-95.844767 74.511811-46.242481 0-84.735734-31.719452-95.826703-74.511811H271.204925a24.83727 24.83727 0 1 1 0-49.67454h251.895077c11.072907-42.792358 49.602286-74.51181 95.826703-74.51181s84.735734 31.719452 95.844767 74.51181h53.178853a24.819207 24.819207 0 1 1 0 49.67454z m-149.02362-84.464781c-32.911641 0-59.627512 26.715871-59.627511 59.627511s26.715871 59.627512 59.627511 59.627512 59.627512-26.715871 59.627512-59.627512-26.715871-59.627512-59.627512-59.627511z m198.69816 481.861102h-596.09448a99.34908 99.34908 0 0 1-99.34908-99.34908v-596.094481a99.34908 99.34908 0 0 1 99.34908-99.34908h596.09448a99.34908 99.34908 0 0 1 99.349081 99.34908v596.094481a99.34908 99.34908 0 0 1-99.349081 99.34908z m49.674541-695.443561a49.67454 49.67454 0 0 0-49.674541-49.67454h-596.09448a49.67454 49.67454 0 0 0-49.67454 49.67454v596.094481a49.67454 49.67454 0 0 0 49.67454 49.67454h596.09448c27.456473 0 49.67454-22.218067 49.674541-49.67454v-596.094481z m-99.349081 496.745401h-276.732346c-11.072907 42.792358-49.602286 74.51181-95.826704 74.51181s-84.735734-31.719452-95.826703-74.51181h-28.359647a24.83727 24.83727 0 1 1 0-49.67454h28.359647c11.072907-42.792358 49.602286-74.51181 95.826703-74.51181s84.735734 31.719452 95.826704 74.51181h276.732346a24.819207 24.819207 0 1 1 0 49.67454zM395.391275 501.3132a59.609448 59.609448 0 1 0 0 119.200833 59.609448 59.609448 0 0 0 0-119.200833z"  horiz-adv-x="1024" />

    
    <glyph glyph-name="approval-service" unicode="&#58925;" d="M204.330358 308.94761000000005h48.084107v-48.084107h-48.084107zM204.330358 419.457964h48.084107v-48.066043h-48.084107zM204.330358 198.491445h48.084107v-48.120233h-48.084107zM721.875745 599.890774V713.923443a68.910919 68.910919 0 0 1-68.712224 68.694162H301.600423l-1.752125-0.036127c-5.292503-0.144505-9.736038-2.402399-14.089258-6.087281l-181.480472-154.439937a24.02399 24.02399 0 0 1-8.290986-15.82332l-0.307074-1.824378v-550.293879A68.892856 68.892856 0 0 1 164.374669-14.581477999999947h488.788852a68.910919 68.910919 0 0 1 68.712224 68.694161v24.620074a261.554419 261.554419 0 0 0-48.084106 9.844417v-34.464491c0-11.18109-9.428965-20.610055-20.628118-20.610055H164.374669a20.881002 20.881002 0 0 0-20.610054 20.610055V592.521009l150.845369 128.338684v-141.163521h-75.233022v-48.084106h123.20875l0.108379 202.921432H653.163521c11.18109 0 20.628118-9.428965 20.628118-20.610055v-123.877086a260.055177 260.055177 0 0 0 48.084106 9.844417zM310.18042 260.86350300000004h189.934027a258.628188 258.628188 0 0 0-10.097301 48.084107h-179.854789v-48.084107zM310.18042 371.391921h180.107673a260.47063 260.47063 0 0 0 10.476627 48.066043H310.18042v-48.066043zM310.18042 150.371212h258.790757a263.541365 263.541365 0 0 0-39.467984 48.120233H310.18042v-48.120233zM744.671441 249.71853899999996l-96.43916 78.285695 30.328029 37.318468 58.199471-47.271264 83.93946 108.559534 38.059059-29.442935zM750.307144 125.17311700000005c-118.060751 0-214.120586 96.059834-214.120586 214.120586 0 118.078815 96.041771 214.120586 214.120586 214.120585 118.078815 0 214.120586-96.041771 214.120586-214.120585 0.018063-118.042688-96.041771-214.120586-214.120586-214.120586z m0 380.157065c-91.525983 0-166.018416-74.474369-166.018416-166.036479 0-91.544047 74.492433-166.018416 166.018416-166.018416 91.544047 0 166.036479 74.474369 166.036479 166.018416 0 91.56211-74.492433 166.036479-166.036479 166.036479z"  horiz-adv-x="1024" />

    
    <glyph glyph-name="business-monitor" unicode="&#58926;" d="M512.279984 815.834324c-238.889379 0-433.234243-194.380991-433.234243-433.252306 0-238.925506 194.362928-433.252306 433.234243-433.252307 238.943569 0 433.252306 194.362928 433.252306 433.252307 0.018063 238.889379-194.326801 433.252306-433.252306 433.252306z m296.33121-669.034769a26.19203 26.19203 0 0 1-6.358341 11.181288l-24.385683 24.36762a27.059077 27.059077 0 1 1-38.330681-38.294555l24.385683-24.36762c3.992027-4.01009 9.013671-5.997072 14.16176-6.936372-68.460548-67.503184-162.318333-109.302052-265.858139-109.302051-103.250789 0-196.909877 41.65436-265.352361 108.814338 6.015135 0.596094 11.885763 2.817901 16.455821 7.387958l24.349556 24.36762c5.292596 5.292596 7.929863 12.228969 7.929863 19.183404a27.041013 27.041013 0 0 1-46.206354 19.147278l-24.36762-24.36762c-4.01009-4.01009-5.979008-8.959481-6.954436-14.089506a376.9846 376.9846 0 0 0-83.579671 211.61354h52.79952a27.059077 27.059077 0 1 1 0 54.154281h-52.74533A376.858156 376.858156 0 0 0 226.100443 630.467004l23.338002-23.319938a26.914569 26.914569 0 0 1 19.165341-7.9118 27.02295 27.02295 0 0 1 19.147277 46.188291l-23.319939 23.338002a376.731712 376.731712 0 0 0 220.807847 91.545661v-52.781457a27.095204 27.095204 0 1 1 54.15428 0V760.30722c187.408492-13.33084 337.353349-163.23957 350.648062-350.648062H837.241793a27.059077 27.059077 0 1 1 0-54.154281h52.781457a377.111044 377.111044 0 0 0-81.412056-208.705322z m-127.600345 442.681438l-134.012878-160.837129a80.418564 80.418564 0 0 1-34.736051 8.092434 81.321738 81.321738 0 0 1-81.23142-81.231421 81.339801 81.339801 0 0 1 81.23142-81.23142 81.321738 81.321738 0 0 1 81.231421 81.23142c0 12.662492-3.161107 24.512128-8.363386 35.223765 0.632221 0.614158 1.517331 0.867047 2.095362 1.571522l135.385701 162.480905a27.131331 27.131331 0 0 1-3.450123 38.16811 27.149394 27.149394 0 0 1-38.150046-3.468186z m-141.653725-261.053256h-54.15428v54.154281h54.15428v-54.154281z"  horiz-adv-x="1024" />

    
    <glyph glyph-name="xiaofeitongji" unicode="&#58927;" d="M505.777135 817.496163c-239.431283 0-433.523258-194.110039-433.523259-433.523258 0-239.449346 194.091976-433.523258 433.523259-433.523259 239.449346 0 433.523258 194.073912 433.523258 433.523259 0 239.413219-194.073912 433.523258-433.523258 433.523258z m0-812.856109c-209.500115 0-379.332851 169.814673-379.332851 379.332851 0 209.482051 169.832737 379.332851 379.332851 379.332851 209.518178 0 379.332851-169.8508 379.332851-379.332851 0-209.500115-169.814673-379.332851-379.332851-379.332851z m36.036621 401.966378c-16.184868 6.791864-75.758189 16.184868-75.75819 42.23239 0 19.201468 22.272257 24.746953 35.639225 24.746953 12.174778 0 26.751998-3.829455 34.447035-11.50643 4.8952-4.732629 6.882182-8.092434 8.507894-12.806999 2.023109-5.581612 3.269488-11.56062 10.928399-11.560621h39.685442c9.32075 0 11.723191 1.734093 11.723191 11.958017 0 43.966484-34.392845 68.7315-73.698954 77.239394v34.139956c0 7.676974-2.438568 12.409603-11.723191 12.409604h-31.629135c-9.338814 0-11.741255-4.732629-11.741254-12.409604v-32.821323c-42.12401-8.128561-77.365838-34.591543-77.365839-82.387483 0-54.190407 37.680397-71.242322 78.612218-84.898304 34.428972-11.542557 70.465593-11.958017 70.465593-35.837923 0-23.89797-17.792517-28.991868-39.667378-28.991868-15.010743 0-31.593007 3.829455-39.685442 14.071443-5.274533 6.394468-7.297642 11.958017-7.695038 17.485438-0.812856 10.67551-5.274533 11.958017-14.63141 11.958016h-39.288045c-9.32075 0-11.723191-2.131489-11.723191-11.958016 0-48.590732 38.872586-78.070313 80.996595-87.463318v-33.309037c0-7.676974 2.438568-12.409603 11.741255-12.409603h31.629134c9.32075 0 11.723191 4.732629 11.723192 12.409603v32.460054c47.795939 7.207324 80.581136 36.235319 80.581135 87.463318 0.018063 58.001799-42.918803 70.393339-72.073241 79.786343z"  horiz-adv-x="1024" />

    
    <glyph glyph-name="number-check" unicode="&#58928;" d="M511.990968 391.324737c-55.87031 0-101.281871 48.410097-101.281871 107.911164 0 59.519131 45.429625 107.911164 101.281871 107.911165s101.263808-48.392034 101.263808-107.911165c0.018063-59.519131-45.411561-107.911164-101.263808-107.911164z m0 161.848683c-27.926123 0-50.649967-24.186985-50.649967-53.955582 0-29.73247 22.723844-53.955582 50.649967-53.955583 27.944187 0 50.631904 24.205049 50.631904 53.955583 0 29.768597-22.687717 53.955582-50.631904 53.955582zM340.406075 274.23733000000004c-108.597576 115.678456-108.597576 303.990122 0 419.686641l35.801796-38.150047c-88.854205-94.688705-88.854205-248.715906 0-343.386547l-35.801796-38.150047zM225.088888 193.00590899999997c-157.350879 167.773501-157.350879 440.748646 0 608.540211l35.81986-38.150047c-137.661698-146.72956-137.661698-385.510558 0-532.25818l-35.81986-38.131984zM683.648115 287.477853l-35.801796 38.150047c88.818078 94.634515 88.818078 248.661716 0 343.368484l35.801796 38.131983c108.543386-115.732647 108.543386-303.990122 0-419.650514zM798.893048 179.83763999999996l-35.819859 38.150047c137.679762 146.72956 137.679762 385.474431 0 532.20399l35.801796 38.150047c157.387006-167.737374 157.387006-440.712519 0.018063-608.504084zM613.27284 181.55367h-50.649968v54.641994c0 29.768597-22.687717 53.937519-50.631904 53.937519-27.926123 0-50.649967-24.168922-50.649967-53.937519v-54.641994h-50.649967v54.641994c0 59.519131 45.429625 107.911164 101.281871 107.911164s101.263808-48.392034 101.263808-107.911164v-54.641994zM613.27284-33.564183999999955H410.709097v162.553159h202.563743v-162.553159z m-151.913776 53.973646h101.263808v54.623931h-101.263808v-54.623931z"  horiz-adv-x="1024" />

    
    <glyph glyph-name="suanfaliebiao" unicode="&#58930;" d="M410.25751 584.856745h-59.663638v59.627511h-53.233044v-59.627511h-59.609448v-53.233044h59.609448v-59.645575h53.233044v59.645575h59.663638zM656.426467 104.910371l-37.626206 37.662333 122.00067 121.928416 37.626207-37.662333zM403.917233 143.349433l-42.142074 42.160137L403.917233 227.651643l-37.626207 37.64427-42.160136-42.142074-42.160137 42.142074L244.344547 227.651643l42.142073-42.142073-42.160137-42.160137 37.626206-37.64427 42.178201 42.160137 42.160136-42.160137zM613.200586 584.531602h172.524193v-53.21498h-172.524193zM806.533895 772.608443H217.014518c-58.290815 0-105.96031-47.886257-105.96031-106.484151v-589.519377c0-58.57983 47.705622-106.502214 105.96031-106.502214H806.533895c58.543703 0 106.502214 47.886257 106.502214 106.502214V666.124292c-0.018063 58.57983-47.940447 106.48415-106.502214 106.484151z m53.251107-106.484151V397.990157H538.417824V719.375399H806.533895a53.305297 53.305297 0 0 0 53.251107-53.251107zM217.014518 719.375399H485.18478v-321.367179H164.034363V666.124292a53.16079 53.16079 0 0 0 52.980155 53.251107zM164.034363 76.622978V344.73905h321.11429v-321.367179H217.014518a53.178853 53.178853 0 0 0-52.980155 53.251107z m642.499532-53.251107H538.417824V344.73905h321.367178v-268.134135a53.323361 53.323361 0 0 0-53.251107-53.233044z"  horiz-adv-x="1024" />

    
    <glyph glyph-name="verification" unicode="&#58932;" d="M130.183422 637.7827090000001a18.731817 18.731817 0 0 0-18.731818 18.731818v75.685935c0 10.332304 8.38145 18.731817 18.731818 18.731818h75.667872a18.731817 18.731817 0 1 0 0-37.463635H148.915239v-56.954118c0-10.350368-8.38145-18.731817-18.731817-18.731818zM205.851294-3.5968880000000354H130.183422a18.713754 18.713754 0 0 0-18.731818 18.713754v75.685935a18.731817 18.731817 0 0 0 37.463635 0v-56.954118h56.936055a18.731817 18.731817 0 1 0 0-37.445571zM903.82374-3.5968880000000354h-75.649809a18.713754 18.713754 0 1 0 0 37.445571h56.917992v56.954118a18.731817 18.731817 0 0 0 37.481698 0v-75.685935c0-10.350368-8.417577-18.713754-18.749881-18.713754zM903.82374 637.7827090000001a18.731817 18.731817 0 0 0-18.731817 18.731818v56.954118h-56.917992a18.731817 18.731817 0 1 0 0 37.463635h75.649809c10.332304 0 18.749881-8.38145 18.749881-18.731818v-75.685935c0-10.350368-8.417577-18.731817-18.749881-18.731818zM902.342536 391.162165c-7.767292 9.537512-192.827533 233.253577-385.347987 233.669037-191.834042 0-377.526504-222.541939-385.347986-232.025261l-12.807-15.534583 12.770873-15.245568c7.767292-9.537512 192.068867-233.470338 384.06548-233.470338 203.141774 0 377.960028 222.198733 385.763446 231.663991l13.240523 15.462329-12.337349 15.480393zM515.495281 177.688088C374.816984 177.97710300000006 228.918344 327.723262 184.42802 377.144913c44.634832 49.150699 191.635344 197.993685 332.801354 197.993685 140.660234-0.325142 286.450493-150.053238 330.958881-199.420699-44.634832-49.186826-180.345676-198.029812-332.692974-198.029811z m13.908871 342.085978c-79.027677 0-143.460072-64.992362-143.622642-144.164547-0.090317-38.420999 14.739791-75.703999 41.798867-102.925647 27.07714-27.257775 62.228651-43.876166 100.59546-43.876167 74.529874 0 143.803278 66.726455 143.983912 145.89864 0.180635 79.35282-63.258269 144.887086-142.755597 145.067721z m-1.372823-237.516556c-24.945651 0.108381-47.543051 9.916845-65.19106 27.637108a93.659087 93.659087 0 0 0-27.366156 66.708391 94.237118 94.237118 0 0 0 94.110674 94.038421c51.769902-0.090317 93.008802-42.467216 92.900422-94.417753-0.108381-51.733776-44.851594-93.821659-94.45388-93.966167z"  horiz-adv-x="1024" />

    
    <glyph glyph-name="syste-set" unicode="&#58933;" d="M838.614617 266.27134a109.645257 109.645257 0 0 1 109.518813 109.518813 109.645257 109.645257 0 0 1-109.518813 109.518813h-18.984706a344.253594 344.253594 0 0 1-13.168269 31.972341l13.366967 13.403094a108.850465 108.850465 0 0 1 31.97234 77.438092c0 29.335074-11.379986 56.80961-31.97234 77.420028a108.66983 108.66983 0 0 1-77.438092 31.990404 108.705957 108.705957 0 0 1-77.420029-31.990404l-13.366967-13.366967a327.400377 327.400377 0 0 1-31.990404 13.168269V704.346593a109.645257 109.645257 0 0 1-109.518813 109.518813 109.645257 109.645257 0 0 1-109.518813-109.518813v-19.00277c-10.964526-3.847519-21.621973-8.273069-32.008467-13.168269l-13.348904 13.366967a108.796274 108.796274 0 0 1-77.438092 31.972341 108.66983 108.66983 0 0 1-77.420029-31.990404 108.66983 108.66983 0 0 1-31.990403-77.420029c0-29.31701 11.379986-56.827674 31.990403-77.438092l13.366967-13.366967a324.907619 324.907619 0 0 1-13.186332-31.990404H181.537864a109.645257 109.645257 0 0 1-109.518813-109.518813 109.645257 109.645257 0 0 1 109.518813-109.518813h18.984707c3.847519-10.928399 8.273069-21.603909 13.186332-31.990404l-13.366967-13.366967a108.705957 108.705957 0 0 1-31.990404-77.420028 108.742084 108.742084 0 0 1 31.990404-77.438092 108.832401 108.832401 0 0 1 77.420028-31.972341c29.31701 0 56.827674 11.379986 77.438092 31.972341l13.348904 13.366967c10.386495-4.8952 21.043942-9.302687 32.008467-13.168269v-18.984706a109.645257 109.645257 0 0 1 109.518814-109.518813 109.645257 109.645257 0 0 1 109.518813 109.518813v18.984706a340.677027 340.677027 0 0 1 31.990403 13.186332l13.366968-13.403094a108.886592 108.886592 0 0 1 77.420028-31.97234c29.31701 0 56.827674 11.379986 77.438092 31.97234a108.868528 108.868528 0 0 1 31.972341 77.438092c0 29.31701-11.379986 56.827674-31.972341 77.420029l-13.366967 13.38503c4.8952 10.368431 9.338814 21.043942 13.168269 31.990404h19.00277z m-57.514086-84.103512c10.26005-10.26005 15.93198-23.988287 15.93198-38.728078 0-14.6856-5.653866-28.413837-15.93198-38.728078-20.610418-20.556228-56.845737-20.556228-77.420029 0l-42.160136 42.196264-18.081533-10.169733a274.889873 274.889873 0 0 0-58.688211-24.223112l-19.94207-5.635802v-59.735893a54.786502 54.786502 0 0 0-54.750375-54.732311 54.804565 54.804565 0 0 0-54.732311 54.732311v59.735893l-19.94207 5.635802a273.119653 273.119653 0 0 0-58.688211 24.223112l-18.081533 10.133606-42.142073-42.160137c-20.592355-20.556228-56.827674-20.556228-77.438092 0a54.371042 54.371042 0 0 0-15.93198 38.728078c0 14.703664 5.653866 28.4319 15.93198 38.728078l42.160137 42.160137-10.15167 18.081532a273.119653 273.119653 0 0 0-24.186985 58.724338l-5.653866 19.88788h-59.699765A54.822629 54.822629 0 0 0 126.751363 375.77209000000005a54.804565 54.804565 0 0 0 54.750375 54.750375h59.699765l5.653866 19.924006c5.906754 20.772989 14.017252 40.534425 24.186985 58.688211l10.15167 18.081533-42.160137 42.142073c-10.278114 10.296177-15.93198 24.042477-15.93198 38.746141s5.653866 28.4319 15.93198 38.710015c20.610418 20.556228 56.845737 20.556228 77.438092 0l42.142073-42.160137 18.081533 10.169733a274.889873 274.889873 0 0 0 58.688211 24.186985l19.94207 5.653866v59.717829c0 30.20212 24.566318 54.732311 54.732311 54.732311a54.786502 54.786502 0 0 0 54.750375-54.732311v-59.717829l19.94207-5.653866c20.700736-5.870627 40.426044-13.999189 58.688211-24.223112l18.081533-10.133606 42.160136 42.160137c20.574291 20.556228 56.827674 20.556228 77.420029 0 10.26005-10.26005 15.93198-24.00635 15.93198-38.710015s-5.653866-28.413837-15.93198-38.746141l-42.142073-42.142073 10.097479-18.081533a273.426732 273.426732 0 0 0 24.223112-58.688211l5.653866-19.924006h59.717829a54.804565 54.804565 0 0 0 54.750374-54.750375 54.822629 54.822629 0 0 0-54.750374-54.750375H778.896788l-5.653866-19.88788a273.173843 273.173843 0 0 0-24.223112-58.724338l-10.097479-18.081532 42.1782-42.160137zM510.076241 540.0412779999999c-90.588298 0-164.269188-73.68089-164.269188-164.269188 0-90.606361 73.68089-164.269188 164.269188-164.269188 90.624424 0 164.287251 73.662827 164.287251 164.269188-0.018063 90.588298-73.68089 164.269188-164.287251 164.269188z m0-273.769938a109.645257 109.645257 0 0 0-109.518814 109.518813 109.645257 109.645257 0 0 0 109.518814 109.518813 109.627194 109.627194 0 0 0 109.518813-109.518813 109.645257 109.645257 0 0 0-109.518813-109.518813z"  horiz-adv-x="1024" />

    
    <glyph glyph-name="guizeguanli1" unicode="&#58934;" d="M411.359382 496.038667a26.5533 26.5533 0 0 0-26.535236-26.535236h-120.808482a26.5533 26.5533 0 0 0 0 53.070472h120.808482a26.5533 26.5533 0 0 0 26.535236-26.535236zM411.359382 381.100813c0-14.667537-11.867699-26.535236-26.535236-26.535236h-120.808482a26.517173 26.517173 0 1 0 0 53.070472h120.808482c14.667537 0 26.535236-11.867699 26.535236-26.535236zM167.647057 597.374729a27.095204 27.095204 0 1 1-54.190408 0v-596.094481a27.095204 27.095204 0 1 1 54.190408 0v596.094481zM908.24929 597.374729a27.095204 27.095204 0 1 1-54.190407 0v-596.094481a27.095204 27.095204 0 1 1 54.190407 0v596.094481zM879.763199-28.903808a27.095204 27.095204 0 1 1 0 54.190407h-614.157949a27.095204 27.095204 0 1 1 0-54.190407h614.157949zM768.853499 97.359841a27.095204 27.095204 0 1 1 0 54.190407H264.593695a27.095204 27.095204 0 1 1 0-54.190407h504.259804zM881.154086 582.038844a27.095204 27.095204 0 1 1 0 54.190407h-740.602233a27.095204 27.095204 0 1 1 0-54.190407h740.602233zM280.29085 755.628782a26.5533 26.5533 0 0 0 0-37.517826l-121.549084-121.549083A26.5533 26.5533 0 0 0 121.223941 634.079698l121.549084 121.549084a26.5533 26.5533 0 0 0 37.517825 0zM740.024202 755.628782a26.5533 26.5533 0 0 0 37.517826 0l121.549083-121.549084a26.517173 26.517173 0 0 0-37.499762-37.517825l-121.549083 121.549083a26.499109 26.499109 0 0 0-0.018064 37.517826zM750.79003 710.289474a27.095204 27.095204 0 1 1 0 54.190407H264.593695a27.095204 27.095204 0 1 1 0-54.190407h486.196335zM537.948173 621.326889a27.095204 27.095204 0 1 0-54.190407 0V730.845702a27.095204 27.095204 0 1 0 54.190407 0v-109.518813z"  horiz-adv-x="1024" />

    
    <glyph glyph-name="yuzhiguizeguanli" unicode="&#58929;" d="M391.760518 513.70474c0-13.69211-11.09097-24.78308-24.78308-24.78308h-112.860555a24.78308 24.78308 0 0 0 0 49.56616h112.860555c13.674046 0 24.78308-11.09097 24.78308-24.78308zM391.760518 406.33548c0-13.69211-11.09097-24.801143-24.78308-24.801144h-112.860555a24.78308 24.78308 0 1 0 0 49.584223h112.860555c13.69211 0 24.78308-11.09097 24.78308-24.783079zM164.088553 608.375381a25.288857 25.288857 0 1 1-50.61384 0v-556.878689a25.30692 25.30692 0 0 1 50.61384 0V608.375381zM855.937483 608.375381a25.288857 25.288857 0 1 1-50.61384 0v-185.620208a25.288857 25.288857 0 1 1 50.61384 0V608.375381zM543.76461 23.317681a25.288857 25.288857 0 1 1 0 50.61384H138.76357a25.288857 25.288857 0 1 1 0-50.61384h405.00104zM534.479987 141.272134a25.324984 25.324984 0 0 1 0 50.61384H249.022985a25.30692 25.30692 0 0 1 0-50.61384h285.457002zM830.630563 594.05105a25.30692 25.30692 0 0 1 0 50.613841H138.76357a25.288857 25.288857 0 1 1 0-50.613841h691.866993zM269.308261 756.206813a24.765016 24.765016 0 0 0 0-35.04313l-113.56503-113.546967a24.765016 24.765016 0 1 0-35.04313 35.04313l113.56503 113.546967a24.765016 24.765016 0 0 0 35.04313 0zM698.767239 756.206813a24.765016 24.765016 0 0 0 35.04313 0l113.546967-113.565031a24.765016 24.765016 0 0 0 0-35.04313 24.746953 24.746953 0 0 0-35.025067 0l-113.56503 113.565031a24.801143 24.801143 0 0 0 0 35.04313zM708.846655 713.847978a25.30692 25.30692 0 0 1 0 50.61384H254.640724a25.30692 25.30692 0 0 1 0-50.61384h454.205931zM510.02205 630.75602a25.288857 25.288857 0 1 0-50.61384 0V733.049445a25.30692 25.30692 0 0 0 50.61384 0v-102.293425zM778.300693 162.749599m-195.735751 0a195.735751 195.735751 0 1 1 391.471502 0 195.735751 195.735751 0 1 1-391.471502 0ZM778.300693 162.749599m-156.592213 0a156.592214 156.592214 0 1 1 313.184427 0 156.592214 156.592214 0 1 1-313.184427 0ZM879.92577-91.060206l-78.305138 191.653408 22.344511 10.368431 134.482528-134.861861-78.521901-67.159978zM843.365309-0.508035m-19.400166 0a19.400166 19.400166 0 1 1 38.800332 0 19.400166 19.400166 0 1 1-38.800332 0ZM899.325936 35.040872m-19.400166 0a19.400166 19.400166 0 1 1 38.800332 0 19.400166 19.400166 0 1 1-38.800332 0ZM896.580289 123.190601c0-13.69211-11.109033-24.765016-24.801143-24.765016h-112.842492a24.801143 24.801143 0 0 0 0 49.566159h112.842492c13.69211 0 24.801143-11.109033 24.801143-24.801143zM758.954718 273.117395c13.69211 0 24.765016-11.109033 24.765016-24.801143v-112.842492a24.801143 24.801143 0 0 0-49.566159 0v112.842492c0 13.69211 11.127097 24.801143 24.801143 24.801143z"  horiz-adv-x="1024" />

    
    <glyph glyph-name="teshumingdan" unicode="&#58931;" d="M413.942458 321.075905c-123.265113 0-223.553494 100.270317-223.553494 223.517367 0 123.265113 100.28838 223.553494 223.553494 223.553494 123.24705 0 223.517367-100.28838 223.517367-223.553494 0-123.24705-100.270317-223.517367-223.517367-223.517367z m0 397.396321c-95.880894 0-173.878954-78.016123-173.878954-173.878954 0-95.862831 78.016123-173.842827 173.878954-173.842827 95.862831 0 173.842827 77.979996 173.842827 173.842827s-77.979996 173.878954-173.842827 173.878954zM687.134365 321.075905v49.67454c68.460548 0 124.18635 55.707739 124.18635 124.168287a124.330858 124.330858 0 0 1-124.18635 124.18635v49.692604c95.862831 0 173.86089-78.016123 173.86089-173.860891 0-95.880894-78.016123-173.86089-173.86089-173.86089zM910.669795 23.028665h-149.02362v49.67454h91.726296l-18.406675 129.08155-79.515391 21.351021 12.39154 48.121082 111.632239-29.606026 31.195611-218.622167zM715.078551-26.645875H112.770238l30.653707 258.849512 117.141597 37.987476 15.317822-47.235972-86.885287-28.160948-20.339466-171.765528h490.531567l-20.321403 171.765528-86.885286 28.160948 15.299758 47.235972 117.123534-37.987476 30.67177-258.849512z"  horiz-adv-x="1024" />

    
    <glyph glyph-name="strategy" unicode="&#58935;" d="M616.379756-11.869957H397.378257a24.259239 24.259239 0 0 1 0-48.482351h219.001499a24.241176 24.241176 0 1 1 0 48.482351zM506.770626 671.4530159999999c-160.909383 0-291.38182-128.033869-291.38182-286.01697 0-74.891143 23.01286-127.799044 54.190407-166.111662 53.576249-57.911482 107.947291-83.380973 117.177724-182.603609h240.027377c9.284623 99.222636 63.601475 124.692127 117.448677 182.603609 36.217256 42.756231 54.136217 91.220519 54.136216 166.111662 0 157.983101-130.635009 286.01697-291.598581 286.01697z m201.172855-419.993721c-10.531002-11.235478-21.549719-21.549719-32.171038-31.574944-36.126938-33.995449-73.265431-68.894071-89.865759-134.699289h-53.287234v195.808005l75.541428 75.848507a24.205049 24.205049 0 0 1-34.302528 34.194147l-66.925153-67.159978-66.979344 67.159978a24.205049 24.205049 0 0 1-34.2664 0.054191 24.205049 24.205049 0 0 1-0.072254-34.248338l78.539963-78.828979v-192.827533h-56.466404c-16.564201 65.66071-53.522059 100.505142-89.504489 134.428337-10.549066 9.971035-21.459401 20.249149-31.91815 31.4485-28.522218 35.603098-42.376899 79.551518-42.376899 134.356083 0 130.996278 108.958846 237.570746 242.899469 237.570746 134.067068 0 243.098167-106.574468 243.098167-237.570746-0.018063-59.483004-12.138651-98.391716-41.943375-133.958687zM505.650691 721.579142a24.205049 24.205049 0 0 1 24.205048 24.241176v62.138334a24.205049 24.205049 0 1 1-48.446224 0v-62.156398c0-13.366967 10.856145-24.223112 24.241176-24.223112zM865.637566 678.696467a24.241176 24.241176 0 0 1-34.284464-0.072254l-50.270635-50.523523a24.168922 24.168922 0 0 1 17.142233-41.311154c6.24996 0 12.427667 2.384378 17.196422 7.117007l50.288698 50.505459a24.241176 24.241176 0 0 1-0.072254 34.284465zM232.675546 593.834289a24.223112 24.223112 0 0 1 0.05419 34.266401L182.441038 678.624213a24.241176 24.241176 0 0 1-34.356718-34.212211l50.306761-50.505459a24.259239 24.259239 0 0 1 34.284465-0.072254z"  horiz-adv-x="1024" />

    


  </font>
</defs>
</svg>
